<?xml version="1.0" encoding="utf-8"?>
<!-- Generator: Adobe Illustrator 22.0.1, SVG Export Plug-In . SVG Version: 6.00 Build 0)  -->
<svg version="1.1" id="图层_1" xmlns="http://www.w3.org/2000/svg" xmlns:xlink="http://www.w3.org/1999/xlink" x="0px" y="0px"
	 viewBox="0 0 120 40" style="enable-background:new 0 0 120 40;" xml:space="preserve">
<style type="text/css">
	.st0{fill:url(#SVGID_1_);}
	.st1{fill:#00FFFF;}
	.st2{enable-background:new    ;}
	.st3{fill:#FFFFFF;}
</style>
<linearGradient id="SVGID_1_" gradientUnits="userSpaceOnUse" x1="60" y1="51.8438" x2="60" y2="12.1563" gradientTransform="matrix(1 0 0 -1 0 52)">
	<stop  offset="0" style="stop-color:#4AABFF"/>
	<stop  offset="1" style="stop-color:#0047D2"/>
</linearGradient>
<path class="st0" d="M2.3,0.2h115.3c1.2,0,2.2,1,2.2,2.2v35.3c0,1.2-1,2.2-2.2,2.2H2.3c-1.2,0-2.2-1-2.2-2.2V2.3
	C0.2,1.1,1.1,0.2,2.3,0.2z"/>
<path class="st1" d="M117.7,0.3c1.1,0,2,0.9,2,2v35.3c0,1.1-0.9,2-2,2H2.3c-1.1,0-2-0.9-2-2V2.3c0-1.1,0.9-2,2-2H117.7 M117.7,0H2.3
	C1,0,0,1,0,2.3v35.3C0,39,1,40,2.3,40l0,0h115.3c1.3,0,2.3-1,2.3-2.3l0,0V2.3C120,1,119,0,117.7,0z"/>
<g class="st2">
	<path class="st3" d="M44.3,20.6h7v-2.8h-6v-1.2h6v-2.8c-2,0.1-4,0.1-6,0.2c-0.1-0.4-0.1-0.9-0.2-1.3c5.3-0.1,9.6-0.3,13-0.6
		l0.2,1.3c-1.8,0.1-3.7,0.2-5.6,0.3v2.9h5.7v1.2h-5.7v2.8h7v1.2h-7v2.9c0,1.3-0.6,1.9-1.9,1.9c-0.7,0-1.6,0-2.7,0
		c-0.1-0.5-0.1-1-0.3-1.4c1.2,0.1,2,0.1,2.6,0.1c0.6,0,1-0.3,1-1v-2.4h-7V20.6z"/>
	<path class="st3" d="M61.7,19.2h1.9v-3.4h1.1v3.4h2v1.1h-2v2.1c0.8-0.1,1.5-0.2,2.2-0.3c0,0.3,0,0.6,0,1.2
		c-0.7,0.1-1.4,0.2-2.1,0.3V27h-1.1v-3.3c-1.1,0.1-2.2,0.3-3.3,0.4l-0.1-1.2c1.2-0.1,2.3-0.2,3.4-0.3v-2.2h-3v-1
		c0.5-1.5,1-3,1.4-4.3h-1.6V14h1.9c0.3-0.9,0.5-1.7,0.7-2.5l1.2,0.3c-0.2,0.8-0.5,1.5-0.7,2.2H67V15h-3.8
		C62.7,16.5,62.2,17.9,61.7,19.2z M71.6,11.7l-0.3,0.5c1.2,2.3,2.6,3.8,4.4,4.7c-0.3,0.4-0.6,0.7-0.8,1c-1.7-1-3.1-2.5-4.3-4.6
		c-1.2,2-2.6,3.6-4.1,4.8c-0.3-0.3-0.5-0.6-0.8-0.9c1.9-1.4,3.3-3.2,4.4-5.5H71.6z M67.9,17.6h1.2V21c1.4-0.8,2.6-1.7,3.8-2.9l1,0.7
		c-1.6,1.5-3.2,2.6-4.8,3.4v2c0,0.6,0.4,1,1.1,1h2.1c0.7,0,1.1-0.3,1.3-0.9c0.1-0.7,0.2-1.4,0.3-2.3c0.1,0,0.5,0.2,1.2,0.5
		c-0.1,0.8-0.2,1.5-0.3,2.2c-0.2,1.1-0.9,1.7-2.2,1.7h-2.7c-1.3,0-1.9-0.6-1.9-1.8V17.6z"/>
</g>
</svg>
