<?xml version="1.0" encoding="utf-8"?>
<!-- Generator: Adobe Illustrator 22.0.1, SVG Export Plug-In . SVG Version: 6.00 Build 0)  -->
<svg version="1.1" id="图层_1" xmlns="http://www.w3.org/2000/svg" xmlns:xlink="http://www.w3.org/1999/xlink" x="0px" y="0px"
	 viewBox="0 0 120 40" style="enable-background:new 0 0 120 40;" xml:space="preserve">
<style type="text/css">
	.st0{fill:url(#SVGID_1_);}
	.st1{fill:#00FFFF;}
	.st2{enable-background:new    ;}
	.st3{fill:#FFFFFF;}
</style>
<linearGradient id="SVGID_1_" gradientUnits="userSpaceOnUse" x1="60" y1="51.8438" x2="60" y2="12.1563" gradientTransform="matrix(1 0 0 -1 0 52)">
	<stop  offset="0" style="stop-color:#4AABFF"/>
	<stop  offset="1" style="stop-color:#0047D2"/>
</linearGradient>
<path class="st0" d="M2.3,0.2h115.3c1.2,0,2.2,1,2.2,2.2v35.3c0,1.2-1,2.2-2.2,2.2H2.3c-1.2,0-2.2-1-2.2-2.2V2.3
	C0.2,1.1,1.1,0.2,2.3,0.2z"/>
<path class="st1" d="M117.7,0.3c1.1,0,2,0.9,2,2v35.3c0,1.1-0.9,2-2,2H2.3c-1.1,0-2-0.9-2-2V2.3c0-1.1,0.9-2,2-2H117.7 M117.7,0H2.3
	C1,0,0,1,0,2.3v35.3C0,39,1,40,2.3,40l0,0h115.3c1.3,0,2.3-1,2.3-2.3l0,0V2.3C120,1,119,0,117.7,0z"/>
<g class="st2">
	<path class="st3" d="M45,14.5h1.2v12.3H45V14.5z M45.9,12.2l0.9-0.8c1,0.9,1.7,1.6,2.1,2.1l-1,0.9C47.2,13.6,46.5,12.9,45.9,12.2z
		 M46.3,19.4c1.5-1.6,2.5-3.3,3.2-5l1.1,0.4c-0.4,0.8-0.7,1.5-1.2,2.3v8.2h-1.1v-6.4c-0.4,0.6-0.8,1.1-1.3,1.6
		C46.8,20.1,46.6,19.8,46.3,19.4z M49.7,23.2c1-0.5,2-1,2.9-1.6c-0.2-0.8-0.4-1.7-0.6-2.8l-2,0.3L49.8,18l2.1-0.3
		c-0.1-0.9-0.1-2-0.1-3.1H53c0,1.1,0,2,0,2.9l3.8-0.6l0.2,1l-3.9,0.6c0.1,0.9,0.2,1.6,0.4,2.3c0.8-0.6,1.5-1.3,2.2-2l0.9,0.7
		c-0.9,0.9-1.8,1.7-2.7,2.4c0.2,0.4,0.4,0.8,0.7,1c0.4,0.4,0.7,0.4,0.9,0c0.2-0.5,0.3-1.1,0.5-1.8c0.4,0.3,0.8,0.4,1.1,0.5
		c-0.2,0.8-0.4,1.4-0.6,2c-0.3,0.7-0.7,1-1.3,1c-0.6,0-1.2-0.4-1.8-1.3c-0.2-0.2-0.3-0.5-0.5-0.8c-0.8,0.6-1.7,1.1-2.6,1.5
		C50.2,23.8,50,23.5,49.7,23.2z M50,13.6v-1.2H59v12.3c0,1.3-0.7,2-2.1,2c-0.5,0-1,0-1.5,0c-0.1-0.3-0.1-0.8-0.3-1.3
		c0.6,0.1,1.1,0.1,1.5,0.1c0.7,0,1.1-0.4,1.1-1.1V13.6H50z M53.6,15l0.7-0.8c0.5,0.4,1.2,0.9,1.9,1.5l-0.8,0.8
		C54.9,16.1,54.3,15.6,53.6,15z"/>
	<path class="st3" d="M60.1,19.1c1.5-2.2,2.6-4.7,3.4-7.5l1.2,0.3c-0.4,1.3-0.9,2.6-1.4,3.7v11.2h-1.2V18c-0.5,0.8-1,1.6-1.5,2.4
		C60.5,19.9,60.3,19.5,60.1,19.1z M75.9,22.9c-0.4,0.4-0.7,0.8-0.9,1.2c-2.1-1.6-3.6-4.3-4.6-8.1v6.6h2.3v1.1h-2.3v3.3h-1.2v-3.3
		h-2.3v-1.1h2.3v-6.6h0c-1,3.6-2.6,6.4-4.8,8.4c-0.2-0.3-0.5-0.6-0.8-1c2-1.8,3.5-4.3,4.5-7.4h-3.7v-1.1h4.8v-3.2h1.2v3.2h5v1.1h-4
		C72.4,19.1,73.9,21.5,75.9,22.9z"/>
</g>
</svg>
